# xmcd
#
# Track frame offsets:
#	150
#	43432
#	96486
#	140946
#
# Disc length: 2613 seconds
# Revision: 1
# Processed by: cddbd v1.5.2PL0 Copyright (c) Steve Scherf et al.
# Submitted via: dBpowerAMP V12.0
#
DISCID=410a3304
DTITLE=Lester Levenson - The Way CD 03
DYEAR=1989
DGENRE=Home Study
TTITLE0=Session in 1989 pt 1
TTITLE1=Session in 1989 pt 2
TTITLE2=Session August 13th 1989 pt 1
TTITLE3=Session August 13th 1989 pt 2
EXTD=
EXTT0=
EXTT1=
EXTT2=
EXTT3=
PLAYORDER=
